<svg width="76" height="55" viewBox="0 0 76 55" fill="none" xmlns="http://www.w3.org/2000/svg">
<g id="icon">
<path id="Vector" d="M9.5 6.22024H0C0 18.2428 14.8883 27.9911 33.25 27.9911V41.9866C33.25 42.8419 34.3187 43.5417 35.625 43.5417H40.375C41.6813 43.5417 42.75 42.8419 42.75 41.9866V27.9911C42.75 15.9685 27.8617 6.22024 9.5 6.22024ZM66.5 0C54.0016 0 43.1359 4.51939 37.4508 11.1964C41.5625 14.1316 44.6055 17.6985 46.2086 21.6542C62.9375 20.5171 76 11.2645 76 0H66.5Z" fill="#CBD2A4"/>
<path id="Ellipse 14" d="M73.2364 50.0092C73.2364 55.2143 56.7075 54.9987 39.7273 54.9987C22.747 54.9987 8.29089 55.2143 8.29089 50.0092C8.29089 44.8041 22.747 37.8125 39.7273 37.8125C56.7075 37.8125 73.2364 44.8041 73.2364 50.0092Z" fill="#54473F"/>
</g>
</svg>
