<svg width="125" height="59" viewBox="0 0 125 59" fill="none" xmlns="http://www.w3.org/2000/svg">
<g id="Frame" clip-path="url(#clip0_5_368)" filter="url(#filter0_i_5_368)">
<path id="Vector" d="M29.65 190C25.1389 190 21.1917 188.68 17.8083 186.039C14.425 183.399 12.1694 179.982 11.0417 175.788L0.166668 134.086H125.833L114.958 175.788C113.831 179.982 111.575 183.399 108.192 186.039C104.808 188.68 100.861 190 96.35 190H29.65ZM12.25 4.08472C26.5889 5.79321 38.6336 11.8879 48.384 22.3687C58.128 32.8558 63 45.2439 63 59.5331C63 45.2439 67.872 32.8558 77.616 22.3687C87.3664 11.8879 99.4111 5.79321 113.75 4.08472C115.683 3.77408 117.375 4.31769 118.825 5.71555C120.275 7.11341 120.839 8.74425 120.517 10.6081C118.906 22.8782 113.669 33.3994 104.808 42.1717C95.9472 50.9503 85.2333 56.4268 72.6667 58.6012V78.1713H140.333C143.072 78.1713 145.366 79.0628 147.216 80.8458C149.072 82.6351 150 84.8499 150 87.4903V106.128C150 111.254 148.109 115.64 144.326 119.287C140.536 122.94 135.983 124.767 130.667 124.767H-4.66667C-9.98333 124.767 -14.5363 122.94 -18.3257 119.287C-22.1086 115.64 -24 111.254 -24 106.128V87.4903C-24 84.8499 -23.072 82.6351 -21.216 80.8458C-19.3664 79.0628 -17.0722 78.1713 -14.3333 78.1713H53.3333V58.6012C40.7667 56.4268 30.0528 50.9503 21.1917 42.1717C12.3306 33.3994 7.09445 22.8782 5.48334 10.6081C5.16111 8.74425 5.725 7.11341 7.175 5.71555C8.625 4.31769 10.3167 3.77408 12.25 4.08472Z" fill="#989E7B"/>
</g>
<defs>
<filter id="filter0_i_5_368" x="0" y="0" width="129" height="59" filterUnits="userSpaceOnUse" color-interpolation-filters="sRGB">
<feFlood flood-opacity="0" result="BackgroundImageFix"/>
<feBlend mode="normal" in="SourceGraphic" in2="BackgroundImageFix" result="shape"/>
<feColorMatrix in="SourceAlpha" type="matrix" values="0 0 0 0 0 0 0 0 0 0 0 0 0 0 0 0 0 0 127 0" result="hardAlpha"/>
<feOffset dx="5"/>
<feGaussianBlur stdDeviation="2"/>
<feComposite in2="hardAlpha" operator="arithmetic" k2="-1" k3="1"/>
<feColorMatrix type="matrix" values="0 0 0 0 0 0 0 0 0 0 0 0 0 0 0 0 0 0 0.25 0"/>
<feBlend mode="normal" in2="shape" result="effect1_innerShadow_5_368"/>
</filter>
<clipPath id="clip0_5_368">
<rect width="125" height="59" fill="white"/>
</clipPath>
</defs>
</svg>
