<svg width="245" height="289" viewBox="0 0 245 289" fill="none" xmlns="http://www.w3.org/2000/svg">
<g filter="url(#filter0_d_5_374)">
<path d="M53.375 15.8112C72.9056 18.2482 89.3112 26.9416 102.592 41.8914C115.864 56.8501 122.5 74.5205 122.5 94.9026C122.5 74.5205 129.136 56.8501 142.408 41.8914C155.689 26.9416 172.094 18.2482 191.625 15.8112C194.258 15.3681 196.562 16.1435 198.538 18.1374C200.512 20.1313 201.281 22.4575 200.842 25.1161C198.647 42.6181 191.515 57.6255 179.446 70.1383C167.376 82.66 152.783 90.4717 135.667 93.5733V121.488H227.833C231.564 121.488 234.689 122.76 237.208 125.303C239.736 127.855 241 131.014 241 134.781V161.366C241 168.677 238.424 174.933 233.271 180.135C228.11 185.346 221.908 187.951 214.667 187.951H30.3333C23.0917 187.951 16.8902 185.346 11.7288 180.135C6.57628 174.933 4 168.677 4 161.366V134.781C4 131.014 5.264 127.855 7.792 125.303C10.3112 122.76 13.4361 121.488 17.1667 121.488H109.333V93.5733C92.2167 90.4717 77.6236 82.66 65.5542 70.1383C53.4847 57.6255 46.3528 42.6181 44.1583 25.1161C43.7194 22.4575 44.4875 20.1313 46.4625 18.1374C48.4375 16.1435 50.7417 15.3681 53.375 15.8112Z" fill="#4C4039"/>
<path d="M77.075 281C70.9306 281 65.5542 279.117 60.9458 275.351C56.3375 271.584 53.2653 266.71 51.7292 260.729L36.9167 201.244H208.083L193.271 260.729C191.735 266.71 188.663 271.584 184.054 275.351C179.446 279.117 174.069 281 167.925 281H77.075Z" fill="#9A7E6F"/>
</g>
<g clip-path="url(#clip0_5_374)" filter="url(#filter1_i_5_374)">
<path d="M76.3591 316.95C70.1163 316.95 64.6539 314.748 59.9718 310.342C55.2898 305.939 52.1683 300.238 50.6077 293.242L35.5582 223.677H209.463L194.414 293.242C192.854 300.238 189.732 305.939 185.05 310.342C180.367 314.748 174.905 316.95 168.663 316.95H76.3591ZM52.2799 6.81397C72.1229 9.664 88.7911 19.8309 102.284 37.3145C115.769 54.8087 122.511 75.474 122.511 99.3106C122.511 75.474 129.253 54.8087 142.737 37.3145C156.231 19.8309 172.899 9.664 192.742 6.81397C195.417 6.29577 197.758 7.2026 199.765 9.53445C201.772 11.8663 202.552 14.5868 202.106 17.696C199.877 38.1645 192.63 55.7155 180.367 70.3491C168.105 84.9931 153.279 94.1288 135.888 97.7561V130.402H229.529C233.319 130.402 236.494 131.889 239.054 134.864C241.623 137.848 242.907 141.543 242.907 145.948V177.038C242.907 185.589 240.29 192.906 235.055 198.99C229.81 205.083 223.509 208.131 216.153 208.131H28.8695C21.512 208.131 15.2113 205.083 9.96732 198.99C4.7323 192.906 2.11487 185.589 2.11487 177.038V145.948C2.11487 141.543 3.39909 137.848 5.96754 134.864C8.52713 131.889 11.702 130.402 15.4922 130.402H109.133V97.7561C91.743 94.1288 76.9165 84.9931 64.6539 70.3491C52.3914 55.7155 45.1453 38.1645 42.9157 17.696C42.4698 14.5868 43.2502 11.8663 45.2568 9.53445C47.2634 7.2026 49.6044 6.29577 52.2799 6.81397Z" fill="#989E7B"/>
</g>
<g filter="url(#filter2_i_5_374)">
<path d="M69.64 166.16H103.16V170.48H69.64V166.16ZM83.68 159.16H89V167.92H83.68V159.16ZM73.4 139.92H99.4V152.24H78.76V158.48H73.48V148.08H94.12V144.12H73.4V139.92ZM73.48 156.36H100.24V160.64H73.48V156.36ZM109.837 140.92H133.317V145.12H109.837V140.92ZM106.437 165.4H139.917V169.72H106.437V165.4ZM130.517 140.92H135.797V145.32C135.797 150.52 135.797 155.56 134.477 163.16L129.157 162.72C130.517 155.6 130.517 150.32 130.517 145.32V140.92ZM168.634 137.56H173.994V164.16H168.634V137.56ZM149.314 169.68H174.914V173.92H149.314V169.68ZM149.314 161.48H154.634V171.4H149.314V161.48ZM153.834 139.88C159.514 139.88 163.874 143.8 163.874 149.28C163.874 154.72 159.514 158.68 153.834 158.68C148.154 158.68 143.754 154.72 143.754 149.28C143.754 143.8 148.154 139.88 153.834 139.88ZM153.834 144.48C151.074 144.48 148.954 146.24 148.954 149.28C148.954 152.28 151.074 154.04 153.834 154.04C156.554 154.04 158.674 152.28 158.674 149.28C158.674 146.24 156.554 144.48 153.834 144.48Z" fill="white"/>
</g>
<defs>
<filter id="filter0_d_5_374" x="0" y="15.6903" width="245" height="273.31" filterUnits="userSpaceOnUse" color-interpolation-filters="sRGB">
<feFlood flood-opacity="0" result="BackgroundImageFix"/>
<feColorMatrix in="SourceAlpha" type="matrix" values="0 0 0 0 0 0 0 0 0 0 0 0 0 0 0 0 0 0 127 0" result="hardAlpha"/>
<feOffset dy="4"/>
<feGaussianBlur stdDeviation="2"/>
<feComposite in2="hardAlpha" operator="out"/>
<feColorMatrix type="matrix" values="0 0 0 0 0 0 0 0 0 0 0 0 0 0 0 0 0 0 0.25 0"/>
<feBlend mode="normal" in2="BackgroundImageFix" result="effect1_dropShadow_5_374"/>
<feBlend mode="normal" in="SourceGraphic" in2="effect1_dropShadow_5_374" result="shape"/>
</filter>
<filter id="filter1_i_5_374" x="35.3276" y="0" width="176.983" height="98.4213" filterUnits="userSpaceOnUse" color-interpolation-filters="sRGB">
<feFlood flood-opacity="0" result="BackgroundImageFix"/>
<feBlend mode="normal" in="SourceGraphic" in2="BackgroundImageFix" result="shape"/>
<feColorMatrix in="SourceAlpha" type="matrix" values="0 0 0 0 0 0 0 0 0 0 0 0 0 0 0 0 0 0 127 0" result="hardAlpha"/>
<feOffset dx="5"/>
<feGaussianBlur stdDeviation="2"/>
<feComposite in2="hardAlpha" operator="arithmetic" k2="-1" k3="1"/>
<feColorMatrix type="matrix" values="0 0 0 0 0 0 0 0 0 0 0 0 0 0 0 0 0 0 0.25 0"/>
<feBlend mode="normal" in2="shape" result="effect1_innerShadow_5_374"/>
</filter>
<filter id="filter2_i_5_374" x="69.64" y="137.56" width="105.274" height="40.36" filterUnits="userSpaceOnUse" color-interpolation-filters="sRGB">
<feFlood flood-opacity="0" result="BackgroundImageFix"/>
<feBlend mode="normal" in="SourceGraphic" in2="BackgroundImageFix" result="shape"/>
<feColorMatrix in="SourceAlpha" type="matrix" values="0 0 0 0 0 0 0 0 0 0 0 0 0 0 0 0 0 0 127 0" result="hardAlpha"/>
<feOffset dy="4"/>
<feGaussianBlur stdDeviation="2"/>
<feComposite in2="hardAlpha" operator="arithmetic" k2="-1" k3="1"/>
<feColorMatrix type="matrix" values="0 0 0 0 0 0 0 0 0 0 0 0 0 0 0 0 0 0 0.25 0"/>
<feBlend mode="normal" in2="shape" result="effect1_innerShadow_5_374"/>
</filter>
<clipPath id="clip0_5_374">
<rect width="172.983" height="98.4213" fill="white" transform="translate(35.3276)"/>
</clipPath>
</defs>
</svg>
